# xmcd CD database file
#
# Track frame offsets:
#	150
#	23760
#	54439
#	78501
#	103100
#	123465
#	163576
#	192585
#
# Disc length: 2965 seconds
#
# Revision: 0
# Processed by: cddbd v1.5.2PL0 Copyright (c) Steve Scherf et al.
# Submitted via: CDex 1.70beta2
#
DISCID=650b9308
DTITLE=Steve Weingart and Renee Jones - Observatory
DYEAR=2012
DGENRE=Jazz
TTITLE0=Twenty Twelve
TTITLE1=Time will tell
TTITLE2=Conspiracy
TTITLE3=Ethos
TTITLE4=Nostalgia
TTITLE5=Echoplexity
TTITLE6=Shelter
TTITLE7=After
EXTD=YEAR: 2012
EXTT0=
EXTT1=
EXTT2=
EXTT3=
EXTT4=
EXTT5=
EXTT6=
EXTT7=
PLAYORDER=
